<!-- Generated by IcoMoon.io -->
<svg version="1.1" xmlns="http://www.w3.org/2000/svg" width="32" height="32" viewBox="0 0 32 32">
<title>instagram</title>
<path d="M9.953 1.421c1.564-0.072 2.063-0.088 6.047-0.088s4.483 0.017 6.045 0.088c1.563 0.071 2.629 0.32 3.563 0.681 0.977 0.369 1.864 0.947 2.597 1.693 0.747 0.732 1.323 1.617 1.691 2.596 0.363 0.933 0.611 2 0.683 3.56 0.072 1.567 0.088 2.065 0.088 6.048 0 3.984-0.017 4.483-0.088 6.047-0.071 1.56-0.32 2.627-0.683 3.56-0.368 0.979-0.945 1.866-1.691 2.599-0.733 0.747-1.62 1.323-2.597 1.691-0.933 0.363-2 0.611-3.56 0.683-1.565 0.072-2.064 0.088-6.048 0.088s-4.483-0.017-6.047-0.088c-1.56-0.071-2.627-0.32-3.56-0.683-0.979-0.368-1.866-0.945-2.599-1.691-0.746-0.732-1.324-1.619-1.692-2.597-0.361-0.933-0.609-2-0.681-3.56-0.072-1.567-0.088-2.065-0.088-6.048 0-3.984 0.017-4.483 0.088-6.045s0.32-2.629 0.681-3.563c0.369-0.979 0.947-1.865 1.693-2.597 0.732-0.746 1.618-1.323 2.596-1.692 0.933-0.361 2-0.609 3.56-0.681h0.001zM21.927 4.061c-1.547-0.071-2.011-0.085-5.927-0.085s-4.38 0.015-5.927 0.085c-1.431 0.065-2.207 0.304-2.724 0.505-0.684 0.267-1.173 0.583-1.687 1.096-0.487 0.473-0.861 1.050-1.096 1.687-0.201 0.517-0.44 1.293-0.505 2.724-0.071 1.547-0.085 2.011-0.085 5.927s0.015 4.38 0.085 5.927c0.065 1.431 0.304 2.207 0.505 2.724 0.235 0.636 0.609 1.213 1.096 1.687 0.473 0.487 1.051 0.861 1.687 1.096 0.517 0.201 1.293 0.44 2.724 0.505 1.547 0.071 2.009 0.085 5.927 0.085s4.38-0.015 5.927-0.085c1.431-0.065 2.207-0.304 2.724-0.505 0.684-0.267 1.173-0.583 1.687-1.096 0.487-0.473 0.861-1.051 1.096-1.687 0.201-0.517 0.44-1.293 0.505-2.724 0.071-1.547 0.085-2.011 0.085-5.927s-0.015-4.38-0.085-5.927c-0.065-1.431-0.304-2.207-0.505-2.724-0.267-0.684-0.583-1.173-1.096-1.687-0.473-0.487-1.050-0.861-1.687-1.096-0.517-0.201-1.293-0.44-2.724-0.505zM14.127 20.521c1.046 0.435 2.211 0.494 3.296 0.166s2.022-1.022 2.652-1.965c0.63-0.942 0.913-2.074 0.801-3.201s-0.612-2.181-1.415-2.981c-0.512-0.511-1.13-0.903-1.812-1.146s-1.408-0.333-2.128-0.262-1.415 0.301-2.036 0.673c-0.62 0.372-1.151 0.877-1.553 1.478s-0.665 1.285-0.772 2c-0.106 0.715-0.053 1.446 0.157 2.138s0.571 1.329 1.056 1.866c0.486 0.536 1.084 0.958 1.752 1.235zM10.669 10.669c0.7-0.7 1.531-1.255 2.446-1.634s1.895-0.574 2.885-0.574c0.99 0 1.97 0.195 2.885 0.574s1.746 0.934 2.446 1.634c0.7 0.7 1.255 1.531 1.634 2.446s0.574 1.895 0.574 2.885-0.195 1.97-0.574 2.885c-0.379 0.915-0.934 1.746-1.634 2.446-1.414 1.414-3.331 2.208-5.331 2.208s-3.917-0.794-5.331-2.208c-1.414-1.414-2.208-3.331-2.208-5.331s0.794-3.917 2.208-5.331zM25.211 9.584c0.173-0.164 0.312-0.36 0.408-0.579s0.147-0.454 0.151-0.692c0.003-0.238-0.041-0.475-0.131-0.696s-0.223-0.422-0.391-0.59c-0.169-0.169-0.369-0.302-0.59-0.391s-0.458-0.134-0.696-0.131c-0.239 0.003-0.474 0.055-0.692 0.151s-0.415 0.235-0.579 0.408c-0.318 0.337-0.493 0.785-0.486 1.249s0.194 0.907 0.522 1.235c0.328 0.328 0.771 0.515 1.235 0.522s0.912-0.167 1.249-0.486z"></path>
</svg>
