<!-- Generated by IcoMoon.io -->
<svg version="1.1" xmlns="http://www.w3.org/2000/svg" width="32" height="32" viewBox="0 0 32 32">
<title>telegram</title>
<path d="M26.070 3.996c-0.321 0.023-0.636 0.099-0.933 0.223h-0.004c-0.285 0.113-1.64 0.683-3.7 1.547l-7.382 3.109c-5.297 2.23-10.504 4.426-10.504 4.426l0.062-0.024c0 0-0.359 0.118-0.734 0.375-0.232 0.147-0.431 0.34-0.586 0.567-0.184 0.27-0.332 0.683-0.277 1.11 0.090 0.722 0.558 1.155 0.894 1.394 0.34 0.242 0.664 0.355 0.664 0.355h0.008l4.883 1.645c0.219 0.703 1.488 4.875 1.793 5.836 0.18 0.574 0.355 0.933 0.574 1.207 0.106 0.14 0.23 0.257 0.379 0.351 0.077 0.045 0.16 0.081 0.246 0.106l-0.050-0.012c0.015 0.004 0.027 0.016 0.038 0.020 0.040 0.011 0.067 0.015 0.118 0.023 0.773 0.234 1.394-0.246 1.394-0.246l0.035-0.028 2.883-2.625 4.832 3.707 0.11 0.047c1.007 0.442 2.027 0.196 2.566-0.238 0.543-0.437 0.754-0.996 0.754-0.996l0.035-0.090 3.734-19.129c0.106-0.472 0.133-0.914 0.016-1.343-0.121-0.434-0.399-0.808-0.781-1.047-0.321-0.195-0.692-0.289-1.067-0.27zM25.969 6.046c-0.004 0.063 0.008 0.056-0.020 0.177v0.011l-3.699 18.93c-0.016 0.027-0.043 0.086-0.117 0.145-0.078 0.062-0.14 0.101-0.465-0.028l-5.91-4.531-3.57 3.254 0.75-4.79 9.656-9c0.398-0.37 0.265-0.448 0.265-0.448 0.028-0.454-0.601-0.133-0.601-0.133l-12.176 7.543-0.004-0.020-5.851-1.972c0.010-0.003 0.020-0.007 0.030-0.012l0.032-0.016 0.031-0.011c0 0 5.211-2.196 10.508-4.426 2.652-1.117 5.324-2.242 7.379-3.11 1.219-0.513 2.439-1.023 3.66-1.53 0.082-0.032 0.043-0.032 0.102-0.032v-0.001z"></path>
</svg>
