<!-- Generated by IcoMoon.io -->
<svg version="1.1" xmlns="http://www.w3.org/2000/svg" width="32" height="32" viewBox="0 0 32 32">
<title>facebook</title>
<path d="M14.26 11.916v1.836h-1.344v2.244h1.344v6.671h2.763v-6.671h1.853c0 0 0.175-1.076 0.259-2.253h-2.101v-1.533c0-0.231 0.301-0.539 0.6-0.539h1.504v-2.337h-2.047c-2.899 0-2.831 2.247-2.831 2.583z"></path>
<path d="M8 5.333c-0.707 0-1.386 0.281-1.886 0.781s-0.781 1.178-0.781 1.886v16c0 0.707 0.281 1.385 0.781 1.886s1.178 0.781 1.886 0.781h16c0.707 0 1.385-0.281 1.886-0.781s0.781-1.178 0.781-1.886v-16c0-0.707-0.281-1.386-0.781-1.886s-1.178-0.781-1.886-0.781h-16zM8 2.667h16c1.415 0 2.771 0.562 3.771 1.562s1.562 2.357 1.562 3.771v16c0 1.415-0.562 2.771-1.562 3.771s-2.357 1.562-3.771 1.562h-16c-1.415 0-2.771-0.562-3.771-1.562s-1.562-2.357-1.562-3.771v-16c0-1.415 0.562-2.771 1.562-3.771s2.357-1.562 3.771-1.562v0z"></path>
</svg>
