<svg viewBox="0 0 24 24" fill="none" xmlns="http://www.w3.org/2000/svg">
<path d="M2.45383 7.93942C2.73512 7.65822 3.11658 7.50024 3.51433 7.50024C3.91207 7.50024 4.29354 7.65822 4.57483 7.93942L11.9998 15.3644L19.4248 7.93942C19.7077 7.66619 20.0866 7.51499 20.4799 7.51841C20.8732 7.52183 21.2494 7.67958 21.5276 7.9577C21.8057 8.23581 21.9634 8.61203 21.9668 9.00532C21.9703 9.39862 21.8191 9.77752 21.5458 10.0604L13.0603 18.5459C12.779 18.8271 12.3976 18.9851 11.9998 18.9851C11.6021 18.9851 11.2206 18.8271 10.9393 18.5459L2.45383 10.0604C2.17262 9.77913 2.01465 9.39767 2.01465 8.99992C2.01465 8.60218 2.17262 8.22072 2.45383 7.93942Z" fill="#C79002"/>
</svg>
